<svg id="svg" version="1.1" xmlns="http://www.w3.org/2000/svg" xmlns:xlink="http://www.w3.org/1999/xlink" width="400" height="400" viewBox="0, 0, 400,400"><g id="svgg"><path id="path0" d="M65.291 161.616 C 64.093 162.097,63.760 163.065,64.500 163.915 C 64.829 164.292,65.411 165.275,65.795 166.100 C 66.178 166.925,66.637 167.600,66.815 167.600 C 66.992 167.600,67.355 168.275,67.621 169.100 C 67.887 169.925,68.306 170.849,68.552 171.153 C 69.055 171.775,69.740 173.050,72.540 178.573 C 73.606 180.678,74.628 182.400,74.809 182.400 C 74.990 182.400,75.355 183.075,75.620 183.900 C 75.884 184.725,76.333 185.670,76.617 186.000 C 76.901 186.330,77.432 187.351,77.798 188.269 C 78.163 189.187,78.718 190.037,79.031 190.157 C 79.344 190.277,79.600 190.592,79.600 190.858 C 79.600 191.584,82.475 197.288,83.289 198.175 C 83.680 198.602,84.000 199.181,84.000 199.462 C 84.000 199.743,84.295 200.591,84.655 201.346 C 85.278 202.653,85.268 202.806,84.455 204.486 C 83.985 205.458,83.600 206.444,83.600 206.677 C 83.600 206.911,83.348 207.311,83.040 207.567 C 82.437 208.068,79.600 213.593,79.600 214.268 C 79.600 214.492,79.240 215.002,78.800 215.400 C 78.360 215.798,78.000 216.281,78.000 216.473 C 78.000 216.881,75.986 220.942,72.977 226.600 C 71.807 228.800,70.018 232.220,69.002 234.200 C 67.985 236.180,66.453 239.114,65.597 240.720 C 64.741 242.326,63.921 244.036,63.775 244.520 C 63.628 245.004,63.163 245.778,62.741 246.240 C 61.256 247.865,62.259 248.022,73.371 247.907 L 83.644 247.800 84.875 245.400 C 85.552 244.080,86.342 242.550,86.631 242.000 C 86.919 241.450,87.809 239.650,88.607 238.000 C 89.405 236.350,90.305 234.550,90.607 234.000 C 90.909 233.450,91.809 231.650,92.607 230.000 C 93.405 228.350,94.306 226.550,94.609 226.000 C 94.913 225.450,95.544 224.304,96.013 223.453 L 96.864 221.906 98.236 223.235 C 98.991 223.966,99.773 225.112,99.975 225.782 C 100.177 226.452,100.970 228.170,101.738 229.600 C 102.505 231.030,103.781 233.550,104.572 235.200 C 105.363 236.850,106.266 238.650,106.579 239.200 C 107.706 241.179,110.000 245.985,110.000 246.366 C 110.000 247.775,111.625 248.000,121.813 248.000 C 134.329 248.000,134.150 248.085,131.495 243.400 C 131.246 242.960,130.148 240.890,129.055 238.800 C 127.963 236.710,126.122 233.200,124.966 231.000 C 122.153 225.650,120.000 221.287,120.000 220.937 C 120.000 220.780,119.669 220.280,119.265 219.826 C 118.860 219.372,118.291 218.370,117.999 217.600 C 117.707 216.830,117.249 215.930,116.981 215.600 C 116.714 215.270,116.359 214.550,116.193 214.000 C 116.026 213.450,115.465 212.491,114.945 211.869 C 114.425 211.247,114.000 210.529,114.000 210.273 C 114.000 209.563,111.240 204.131,110.616 203.613 C 110.051 203.144,110.399 200.924,111.115 200.428 C 111.297 200.303,112.220 198.670,113.166 196.800 C 114.112 194.930,115.846 191.600,117.019 189.400 C 118.191 187.200,119.970 183.758,120.972 181.752 C 121.973 179.746,123.047 177.893,123.357 177.636 C 123.668 177.378,124.043 176.680,124.192 176.084 C 124.341 175.488,124.689 174.730,124.965 174.400 C 125.242 174.070,125.708 173.170,126.000 172.400 C 126.292 171.630,126.785 170.701,127.095 170.336 C 127.826 169.475,130.777 163.547,130.790 162.914 C 130.813 161.812,129.053 161.600,119.862 161.600 L 110.471 161.600 109.446 162.818 C 108.883 163.488,108.209 164.745,107.949 165.612 C 107.690 166.478,107.145 167.488,106.739 167.856 C 106.332 168.223,105.999 168.721,105.998 168.962 C 105.998 169.203,105.458 170.480,104.800 171.800 C 104.142 173.120,103.602 174.397,103.602 174.638 C 103.601 174.879,103.240 175.402,102.800 175.800 C 102.360 176.198,101.999 176.721,101.998 176.962 C 101.998 177.203,101.458 178.480,100.800 179.800 C 100.142 181.120,99.602 182.414,99.602 182.676 C 99.596 184.523,96.794 182.093,96.045 179.592 C 95.798 178.768,95.327 177.872,94.998 177.598 C 94.669 177.325,94.400 176.881,94.400 176.611 C 94.400 176.340,93.973 175.315,93.450 174.333 C 92.928 173.350,92.367 172.109,92.204 171.573 C 92.041 171.038,91.599 170.240,91.221 169.800 C 90.843 169.360,90.227 168.190,89.852 167.200 C 89.477 166.210,88.772 164.590,88.285 163.600 L 87.400 161.800 82.200 161.546 C 74.474 161.168,66.323 161.201,65.291 161.616 M291.690 176.201 L 290.380 176.770 290.490 198.417 C 290.619 223.735,290.019 221.200,295.883 221.200 L 299.613 221.200 300.281 219.800 C 301.028 218.233,302.659 217.866,303.637 219.045 C 305.654 221.475,313.476 222.502,317.000 220.800 C 317.880 220.375,318.786 220.021,319.013 220.014 C 321.152 219.943,325.367 213.451,326.360 208.696 L 327.173 204.800 326.370 200.954 C 325.085 194.798,323.257 191.931,319.000 189.393 C 314.900 186.948,306.361 188.073,303.579 191.425 C 302.328 192.933,302.000 191.358,302.000 183.831 C 302.000 178.709,301.858 176.418,301.520 176.080 C 300.822 175.382,293.363 175.474,291.690 176.201 M184.121 177.461 C 183.679 178.613,185.832 185.892,187.248 188.033 C 187.604 188.571,188.033 189.639,188.201 190.406 C 188.369 191.173,188.843 192.427,189.253 193.194 C 189.664 193.961,190.000 194.858,190.000 195.188 C 190.000 195.518,190.427 196.691,190.949 197.794 C 192.191 200.419,193.997 205.083,194.013 205.708 C 194.019 205.979,194.559 207.275,195.213 208.590 C 195.866 209.904,196.400 211.216,196.400 211.506 C 196.400 211.795,196.760 212.738,197.200 213.600 C 197.640 214.462,198.000 215.496,198.000 215.897 C 198.000 216.297,198.644 217.654,199.431 218.913 L 200.862 221.200 204.989 221.200 L 209.117 221.200 210.353 219.793 C 211.032 219.019,211.692 217.894,211.819 217.293 C 211.945 216.692,212.328 215.570,212.670 214.800 C 213.011 214.030,213.517 212.655,213.793 211.745 C 214.069 210.835,214.933 209.254,215.714 208.232 L 217.133 206.373 217.996 208.682 C 218.471 209.951,219.027 211.192,219.232 211.438 C 219.436 211.684,219.942 212.857,220.357 214.043 C 222.990 221.580,222.381 220.971,227.446 221.137 C 232.347 221.297,233.329 220.894,233.987 218.448 C 234.217 217.593,234.670 216.674,234.992 216.406 C 235.315 216.139,235.698 215.263,235.843 214.460 C 235.989 213.657,236.444 212.332,236.854 211.516 C 237.264 210.700,237.600 209.790,237.600 209.494 C 237.600 209.199,238.047 208.060,238.594 206.963 C 239.140 205.866,239.851 204.166,240.173 203.184 C 241.539 199.018,242.503 196.562,242.990 196.000 C 243.277 195.670,243.643 194.770,243.804 194.000 C 243.966 193.230,244.414 191.970,244.800 191.200 C 245.186 190.430,245.638 189.173,245.804 188.406 C 245.969 187.639,246.396 186.571,246.752 186.033 C 247.719 184.571,249.270 179.996,249.339 178.400 L 249.400 177.000 243.945 176.889 L 238.490 176.778 237.494 177.961 C 236.920 178.643,236.381 179.931,236.220 181.006 C 236.066 182.031,235.504 183.691,234.970 184.694 C 234.437 185.698,234.000 186.920,234.000 187.409 C 234.000 187.899,233.713 189.087,233.361 190.050 C 233.010 191.012,232.478 192.790,232.180 194.000 C 231.882 195.210,231.269 196.913,230.819 197.785 C 230.368 198.656,229.996 199.826,229.991 200.385 C 229.978 201.863,228.601 204.664,227.632 205.183 C 226.668 205.699,226.623 205.619,225.184 200.900 L 224.300 198.000 225.177 195.100 C 225.660 193.505,226.409 191.480,226.842 190.600 C 227.275 189.720,227.880 188.100,228.185 187.000 C 228.491 185.900,229.130 183.740,229.604 182.200 C 230.079 180.660,230.614 178.815,230.792 178.100 L 231.116 176.800 226.458 176.806 C 223.896 176.809,221.602 176.944,221.360 177.106 C 220.733 177.525,220.000 179.019,220.000 179.880 C 220.000 180.282,219.643 181.278,219.207 182.091 C 218.771 182.905,218.296 184.342,218.152 185.285 C 217.732 188.039,216.000 189.510,216.000 187.113 C 216.000 186.899,215.642 186.220,215.204 185.605 C 214.766 184.990,214.130 183.168,213.791 181.555 C 212.841 177.041,212.421 176.750,207.047 176.888 L 202.656 177.000 202.366 178.089 C 202.163 178.850,202.314 179.633,202.870 180.689 C 203.618 182.112,204.310 184.159,205.950 189.800 C 206.333 191.120,206.934 192.650,207.285 193.200 C 209.017 195.915,208.650 201.035,206.527 203.759 C 204.823 205.946,204.592 205.867,203.990 202.893 C 203.735 201.632,203.263 200.185,202.940 199.678 C 202.408 198.843,201.751 196.758,200.394 191.600 C 200.134 190.610,199.563 188.900,199.126 187.800 C 198.688 186.700,198.083 184.786,197.781 183.546 C 197.478 182.307,196.784 180.282,196.237 179.046 L 195.244 176.800 189.809 176.800 C 185.123 176.800,184.340 176.891,184.121 177.461 M328.800 177.588 C 328.800 178.543,330.222 181.354,331.055 182.046 C 331.387 182.321,332.010 183.189,332.441 183.973 C 333.330 185.596,334.277 187.072,335.313 188.451 C 336.531 190.070,338.000 192.420,338.000 192.748 C 338.000 192.920,338.450 193.483,339.000 194.000 C 339.550 194.517,340.000 195.143,340.000 195.392 C 340.000 195.641,340.461 196.465,341.025 197.222 C 342.269 198.896,342.137 200.010,340.405 202.459 C 339.728 203.417,338.878 204.650,338.517 205.200 C 338.156 205.750,337.217 207.159,336.430 208.332 C 334.818 210.735,333.613 212.701,332.407 214.900 C 331.954 215.725,331.441 216.400,331.266 216.400 C 330.780 216.400,329.600 219.101,329.600 220.214 L 329.600 221.200 334.500 221.195 C 340.495 221.188,340.982 221.066,341.784 219.377 C 342.135 218.638,342.611 217.917,342.844 217.773 C 343.076 217.629,343.619 216.767,344.051 215.856 C 345.751 212.266,346.652 210.846,347.871 209.833 L 349.142 208.777 350.525 210.889 C 351.285 212.050,352.567 214.235,353.373 215.745 C 354.178 217.255,355.324 219.100,355.919 219.845 L 357.000 221.200 362.257 221.200 L 367.513 221.200 367.769 220.182 C 368.033 219.130,367.867 218.629,366.913 217.600 C 366.607 217.270,365.746 216.010,365.000 214.800 C 364.254 213.590,363.269 212.060,362.811 211.400 C 361.196 209.074,360.000 207.162,360.000 206.908 C 360.000 206.767,359.657 206.280,359.238 205.826 C 355.567 201.847,355.038 198.809,357.423 195.400 C 358.193 194.300,359.119 192.950,359.481 192.400 C 359.843 191.850,360.783 190.438,361.570 189.263 C 362.356 188.088,363.353 186.558,363.785 185.863 C 364.217 185.168,365.402 183.390,366.418 181.912 C 367.870 179.797,368.227 178.964,368.087 178.012 L 367.909 176.800 362.755 176.800 C 358.198 176.800,357.519 176.888,356.900 177.562 C 355.734 178.831,354.658 180.479,353.481 182.796 C 352.866 184.008,351.950 185.630,351.445 186.400 C 350.941 187.170,350.213 188.314,349.827 188.943 L 349.126 190.085 347.732 188.743 C 346.965 188.004,346.085 186.860,345.776 186.200 C 345.467 185.540,344.682 184.100,344.031 183.000 C 343.379 181.900,342.486 180.352,342.046 179.561 C 340.660 177.068,339.879 176.800,334.014 176.800 C 329.094 176.800,328.800 176.844,328.800 177.588 M263.657 188.405 C 262.699 188.607,261.709 188.937,261.457 189.137 C 261.206 189.338,260.550 189.639,260.000 189.805 C 256.385 190.901,252.908 195.686,251.622 201.333 L 250.727 205.267 251.609 208.733 C 252.594 212.607,253.992 215.306,255.790 216.800 C 256.452 217.350,257.355 218.176,257.796 218.636 C 259.381 220.284,264.354 221.600,269.000 221.600 C 273.640 221.600,278.595 220.291,280.221 218.636 C 280.673 218.176,281.708 217.211,282.521 216.490 C 285.141 214.170,284.127 212.024,280.400 212.001 C 280.070 211.999,279.211 211.638,278.490 211.199 C 276.826 210.184,275.812 210.188,274.784 211.216 C 271.263 214.737,264.000 213.971,264.000 210.077 C 264.000 208.037,264.195 208.000,275.106 208.000 C 286.899 208.000,286.806 208.023,286.786 205.086 C 286.769 202.402,285.484 196.977,284.648 196.053 C 284.291 195.659,284.000 195.141,284.000 194.902 C 284.000 194.348,279.068 190.000,278.440 190.000 C 278.180 190.000,277.210 189.613,276.284 189.140 C 274.371 188.162,266.870 187.725,263.657 188.405 M272.418 197.500 C 273.837 198.841,273.970 199.127,273.675 200.200 L 273.344 201.400 269.230 201.514 C 264.704 201.640,264.000 201.382,264.000 199.592 C 264.000 196.134,269.520 194.761,272.418 197.500 M312.602 199.235 C 315.482 202.157,315.401 207.821,312.439 210.629 C 309.482 213.433,304.201 212.094,302.540 208.119 C 299.777 201.506,307.831 194.395,312.602 199.235 M216.390 242.226 C 216.176 242.790,216.000 245.029,216.000 247.200 C 216.000 252.835,216.194 253.200,219.190 253.200 C 220.516 253.200,221.600 253.043,221.600 252.850 C 221.600 252.657,222.095 252.400,222.700 252.277 C 227.202 251.367,227.015 242.000,222.495 242.000 C 221.210 242.000,219.240 243.164,220.486 243.187 C 222.160 243.218,223.957 244.507,224.079 245.764 C 224.332 248.357,223.964 249.598,222.755 250.223 C 222.073 250.576,221.600 251.144,221.600 251.610 C 221.600 252.922,218.903 252.724,218.390 251.374 C 217.869 250.004,217.892 244.550,218.422 243.559 C 218.654 243.125,218.732 242.417,218.595 241.985 C 218.234 240.847,216.857 240.997,216.390 242.226 M231.628 242.764 C 230.940 243.633,230.241 245.120,230.057 246.108 C 229.874 247.087,229.426 248.313,229.062 248.833 C 228.361 249.834,228.193 251.854,228.739 252.716 C 228.966 253.073,229.252 252.759,229.671 251.691 C 230.841 248.714,235.276 248.842,236.376 251.885 C 236.756 252.936,236.980 253.160,237.238 252.752 C 237.774 251.907,237.666 250.272,237.013 249.340 C 236.690 248.879,236.242 247.681,236.017 246.677 C 235.680 245.170,233.496 241.200,233.005 241.200 C 232.929 241.200,232.310 241.904,231.628 242.764 M241.868 242.561 C 238.968 245.013,239.399 250.897,242.563 252.041 C 243.353 252.327,244.000 252.705,244.000 252.880 C 244.000 253.056,244.720 253.200,245.600 253.200 C 246.756 253.200,247.200 253.033,247.200 252.600 C 247.200 252.241,247.569 252.000,248.120 252.000 C 249.215 252.000,250.000 251.307,250.000 250.340 C 250.000 249.955,250.311 249.466,250.691 249.253 C 251.628 248.728,251.647 245.716,250.717 245.036 C 250.352 244.769,249.932 244.070,249.785 243.483 C 249.468 242.218,247.196 241.360,245.943 242.031 C 245.000 242.535,244.982 243.200,245.911 243.200 C 247.001 243.200,248.308 244.284,249.016 245.776 C 249.709 247.238,249.848 246.786,247.278 251.452 C 246.543 252.787,244.523 252.776,244.013 251.434 C 243.811 250.903,243.294 250.357,242.865 250.221 C 240.913 249.601,241.360 244.678,243.447 243.806 C 245.025 243.147,245.221 242.174,243.830 241.908 C 243.215 241.790,242.497 242.029,241.868 242.561 M264.334 241.902 C 263.015 242.187,263.171 243.158,264.578 243.422 C 266.138 243.715,267.240 243.555,267.248 243.035 C 267.257 242.540,265.159 241.724,264.334 241.902 M340.197 242.821 C 339.809 243.580,339.231 244.352,338.912 244.539 C 338.428 244.822,338.470 245.006,339.166 245.654 C 339.809 246.253,340.000 246.918,340.000 248.556 C 340.000 251.785,340.621 253.200,342.039 253.200 C 343.334 253.200,343.439 252.949,342.604 251.846 C 341.131 249.901,341.408 246.336,343.101 245.449 C 344.137 244.906,344.139 244.898,343.268 244.622 C 342.785 244.468,342.055 243.690,341.646 242.893 L 340.902 241.443 340.197 242.821 M259.350 242.394 C 256.834 243.410,257.056 251.351,259.614 251.863 C 260.256 251.991,260.988 252.345,261.240 252.648 C 261.870 253.408,264.649 253.372,264.945 252.600 C 265.071 252.270,265.596 252.000,266.111 252.000 C 267.655 252.000,268.756 251.013,267.772 250.511 C 266.602 249.914,264.400 250.632,264.400 251.611 C 264.400 252.669,262.096 252.746,261.729 251.700 C 261.594 251.315,261.131 250.715,260.700 250.367 C 258.882 248.898,259.473 244.281,261.573 243.549 C 262.343 243.281,262.676 242.941,262.533 242.569 C 262.293 241.944,260.683 241.856,259.350 242.394 M270.769 245.569 C 268.779 247.560,269.319 252.400,271.531 252.400 C 271.789 252.400,272.000 252.580,272.000 252.800 C 272.000 253.020,272.825 253.200,273.833 253.200 C 275.125 253.200,275.616 253.052,275.496 252.700 C 275.392 252.396,274.787 252.247,273.956 252.321 C 272.335 252.463,271.310 250.151,271.811 247.482 C 272.270 245.037,275.941 244.918,276.063 247.345 C 276.144 248.954,276.128 249.141,275.786 250.700 C 275.412 252.402,276.978 252.637,277.610 250.974 C 279.452 246.128,274.289 242.049,270.769 245.569 M284.100 244.665 C 283.350 244.968,283.498 245.600,284.320 245.600 C 285.537 245.600,285.999 246.465,286.018 248.780 C 286.028 250.001,286.268 251.540,286.552 252.200 L 287.067 253.400 287.734 252.120 C 288.100 251.416,288.400 250.279,288.400 249.594 C 288.400 248.908,288.586 247.999,288.814 247.574 C 289.910 245.525,286.770 243.587,284.100 244.665 M290.014 244.783 C 289.547 245.078,289.668 245.246,290.605 245.602 C 292.174 246.198,292.382 246.610,292.422 249.200 C 292.472 252.394,292.898 253.295,293.580 251.648 C 294.107 250.376,294.003 245.775,293.426 244.842 C 293.095 244.307,290.828 244.268,290.014 244.783 M298.700 245.065 L 296.800 245.646 296.800 248.611 C 296.800 251.081,296.900 251.537,297.400 251.345 C 297.742 251.213,298.000 250.617,298.000 249.957 C 298.000 249.187,298.204 248.800,298.610 248.800 C 298.967 248.800,299.319 248.306,299.458 247.609 C 300.182 243.989,302.213 245.289,302.670 249.667 C 302.804 250.950,303.032 252.000,303.177 252.000 C 303.734 252.000,304.400 251.001,304.400 250.166 C 304.400 249.685,304.669 248.776,304.998 248.146 C 306.595 245.083,303.533 243.586,298.700 245.065 M306.011 244.785 C 305.519 245.096,305.552 245.198,306.211 245.407 C 308.291 246.068,308.687 246.771,308.760 249.933 C 308.817 252.412,309.732 251.882,310.067 249.176 C 310.550 245.281,308.587 243.156,306.011 244.785 M324.620 244.767 C 324.047 245.694,323.913 250.324,324.415 251.837 L 324.934 253.400 325.449 252.200 C 325.732 251.540,325.972 250.391,325.982 249.646 C 325.992 248.902,326.209 247.596,326.464 246.744 C 326.719 245.892,326.854 245.128,326.764 245.047 C 326.280 244.611,324.833 244.422,324.620 244.767 M327.631 244.772 C 327.197 245.047,327.410 245.277,328.531 245.746 C 329.991 246.355,330.000 246.374,330.000 248.754 C 330.000 252.016,330.628 253.716,331.430 252.624 C 332.094 251.720,332.211 247.008,331.610 245.426 C 331.197 244.339,328.910 243.963,327.631 244.772 M334.436 245.848 C 333.853 247.947,333.912 250.790,334.563 251.964 L 335.097 252.929 335.802 251.853 C 336.673 250.523,336.455 245.884,335.476 244.904 C 334.930 244.359,334.822 244.457,334.436 245.848 M280.643 245.433 C 280.325 246.261,280.340 250.735,280.665 251.949 L 280.919 252.899 281.445 251.949 C 281.735 251.427,281.978 250.428,281.986 249.729 C 281.994 249.029,282.270 248.187,282.600 247.857 C 283.332 247.125,283.345 246.424,282.643 245.500 C 281.981 244.628,280.965 244.594,280.643 245.433 M314.229 245.943 C 312.625 249.046,313.805 253.200,316.290 253.200 C 317.679 253.200,317.683 253.195,316.839 252.500 C 316.177 251.954,315.898 251.056,315.571 248.410 C 315.078 244.419,315.047 244.362,314.229 245.943 M320.698 245.042 C 320.550 245.281,320.310 246.269,320.164 247.238 C 320.007 248.275,319.490 249.438,318.908 250.064 L 317.919 251.128 319.059 251.855 C 319.687 252.255,320.335 252.766,320.500 252.991 C 321.104 253.814,321.587 252.167,321.554 249.400 C 321.517 246.347,321.125 244.351,320.698 245.042 M346.096 246.858 C 346.232 248.276,346.545 249.116,347.100 249.558 C 348.102 250.356,348.558 252.734,347.992 254.220 C 347.395 255.792,348.516 257.049,349.424 255.824 C 349.741 255.396,350.000 254.746,350.000 254.377 C 350.000 254.009,350.354 253.258,350.787 252.708 C 352.807 250.140,352.053 246.008,350.011 248.454 C 348.792 249.914,348.000 249.736,348.000 248.002 C 348.000 246.319,347.316 244.800,346.559 244.800 C 346.005 244.800,345.930 245.131,346.096 246.858 M233.757 245.833 C 234.152 246.862,234.037 247.872,233.470 248.342 C 232.340 249.279,231.402 246.758,232.480 245.680 C 233.125 245.035,233.467 245.076,233.757 245.833 " stroke="none" fill="#1e165c" fill-rule="evenodd"></path><path id="path1" d="M90.800 134.382 C 88.710 134.556,86.369 134.975,85.597 135.314 C 84.826 135.652,83.045 136.138,81.641 136.393 C 80.236 136.647,78.707 137.097,78.243 137.391 C 77.780 137.686,76.379 138.133,75.131 138.385 C 73.883 138.638,72.653 139.095,72.399 139.402 C 72.144 139.708,71.275 140.171,70.468 140.430 C 69.661 140.689,68.730 141.126,68.400 141.400 C 68.070 141.674,67.080 142.129,66.200 142.411 C 65.320 142.692,64.365 143.255,64.077 143.661 C 63.790 144.068,63.309 144.400,63.008 144.400 C 62.707 144.400,61.927 144.850,61.273 145.400 C 60.619 145.950,59.790 146.400,59.430 146.400 C 59.070 146.400,58.678 146.654,58.559 146.964 C 58.440 147.274,57.233 148.399,55.876 149.464 C 53.163 151.595,49.266 155.401,47.400 157.743 C 46.740 158.571,45.899 159.584,45.530 159.994 C 45.162 160.404,44.661 161.113,44.416 161.570 C 44.172 162.026,43.720 162.400,43.413 162.400 C 43.105 162.400,42.735 162.775,42.589 163.234 C 42.264 164.257,39.970 168.050,39.344 168.600 C 39.093 168.820,38.679 169.661,38.424 170.468 C 38.168 171.275,37.710 172.143,37.405 172.396 C 37.101 172.648,36.730 173.428,36.583 174.128 C 36.435 174.827,35.975 175.769,35.561 176.221 C 35.148 176.672,34.625 178.012,34.400 179.197 C 34.176 180.383,33.743 181.732,33.440 182.195 C 33.136 182.659,32.702 184.233,32.474 185.695 C 32.247 187.156,31.794 188.947,31.468 189.676 C 31.142 190.404,30.765 191.495,30.630 192.101 C 30.229 193.898,30.363 212.080,30.788 213.600 C 31.003 214.370,31.459 216.170,31.802 217.600 C 32.144 219.030,32.778 221.280,33.212 222.600 C 33.645 223.920,34.000 225.270,34.000 225.600 C 34.000 225.930,34.520 227.280,35.157 228.600 C 35.793 229.920,36.820 232.080,37.439 233.400 C 38.058 234.720,38.859 236.250,39.219 236.800 C 39.580 237.350,40.398 238.609,41.037 239.599 C 41.677 240.588,42.740 242.136,43.400 243.039 C 44.060 243.942,44.870 245.102,45.200 245.617 C 46.453 247.574,53.997 254.708,57.024 256.800 C 57.820 257.350,59.054 258.287,59.767 258.882 C 60.480 259.476,62.309 260.617,63.832 261.417 C 65.354 262.216,67.050 263.117,67.600 263.418 C 69.345 264.373,72.956 265.883,74.200 266.178 C 74.860 266.334,75.676 266.711,76.014 267.015 C 76.556 267.504,80.201 268.549,85.000 269.593 C 90.116 270.706,109.846 270.346,113.408 269.074 C 114.293 268.759,115.954 268.371,117.101 268.214 C 118.247 268.056,119.624 267.582,120.160 267.160 C 120.696 266.738,121.735 266.277,122.468 266.136 C 123.675 265.904,126.138 264.843,128.800 263.411 C 129.350 263.116,131.232 262.121,132.982 261.201 C 134.732 260.282,136.352 259.309,136.582 259.040 C 136.812 258.771,137.994 257.885,139.209 257.072 C 143.259 254.360,147.978 249.422,154.800 240.759 C 155.870 239.400,158.782 234.306,159.806 232.000 C 160.148 231.230,160.764 229.880,161.175 229.000 C 161.586 228.120,162.049 226.770,162.205 226.000 C 162.361 225.230,162.740 224.314,163.047 223.965 C 163.562 223.380,164.714 218.995,165.606 214.230 C 166.728 208.225,166.361 191.458,165.024 187.668 C 164.713 186.787,164.332 185.197,164.177 184.133 C 164.021 183.070,163.468 181.391,162.947 180.403 C 162.426 179.415,162.000 178.312,162.000 177.953 C 162.000 176.671,156.496 165.842,154.692 163.575 C 154.201 162.959,153.350 161.804,152.800 161.009 C 150.178 157.218,145.280 152.270,141.118 149.209 C 139.953 148.352,138.550 147.285,138.000 146.836 C 135.883 145.112,134.226 144.000,133.771 144.000 C 133.511 144.000,133.069 143.724,132.788 143.386 C 132.264 142.754,126.834 140.000,126.112 140.000 C 125.890 140.000,125.253 139.642,124.697 139.205 C 124.141 138.768,122.722 138.206,121.543 137.956 C 120.365 137.707,118.950 137.278,118.400 137.002 C 117.850 136.727,116.320 136.376,115.000 136.222 C 113.680 136.069,111.430 135.585,110.000 135.147 C 107.000 134.228,97.290 133.841,90.800 134.382 M82.200 161.546 L 87.400 161.800 88.285 163.600 C 88.772 164.590,89.477 166.210,89.852 167.200 C 90.227 168.190,90.843 169.360,91.221 169.800 C 91.599 170.240,92.041 171.038,92.204 171.573 C 92.367 172.109,92.928 173.350,93.450 174.333 C 93.973 175.315,94.400 176.340,94.400 176.611 C 94.400 176.881,94.669 177.325,94.998 177.598 C 95.327 177.872,95.798 178.768,96.045 179.592 C 96.794 182.093,99.596 184.523,99.602 182.676 C 99.602 182.414,100.142 181.120,100.800 179.800 C 101.458 178.480,101.998 177.203,101.998 176.962 C 101.999 176.721,102.360 176.198,102.800 175.800 C 103.240 175.402,103.601 174.879,103.602 174.638 C 103.602 174.397,104.142 173.120,104.800 171.800 C 105.458 170.480,105.998 169.203,105.998 168.962 C 105.999 168.721,106.332 168.223,106.739 167.856 C 107.145 167.488,107.690 166.478,107.949 165.612 C 108.209 164.745,108.883 163.488,109.446 162.818 L 110.471 161.600 119.862 161.600 C 129.053 161.600,130.813 161.812,130.790 162.914 C 130.777 163.547,127.826 169.475,127.095 170.336 C 126.785 170.701,126.292 171.630,126.000 172.400 C 125.708 173.170,125.242 174.070,124.965 174.400 C 124.689 174.730,124.341 175.488,124.192 176.084 C 124.043 176.680,123.668 177.378,123.357 177.636 C 123.047 177.893,121.973 179.746,120.972 181.752 C 119.970 183.758,118.191 187.200,117.019 189.400 C 115.846 191.600,114.112 194.930,113.166 196.800 C 112.220 198.670,111.297 200.303,111.115 200.428 C 110.399 200.924,110.051 203.144,110.616 203.613 C 111.240 204.131,114.000 209.563,114.000 210.273 C 114.000 210.529,114.425 211.247,114.945 211.869 C 115.465 212.491,116.026 213.450,116.193 214.000 C 116.359 214.550,116.714 215.270,116.981 215.600 C 117.249 215.930,117.707 216.830,117.999 217.600 C 118.291 218.370,118.860 219.372,119.265 219.826 C 119.669 220.280,120.000 220.780,120.000 220.937 C 120.000 221.287,122.153 225.650,124.966 231.000 C 126.122 233.200,127.963 236.710,129.055 238.800 C 130.148 240.890,131.246 242.960,131.495 243.400 C 134.150 248.085,134.329 248.000,121.813 248.000 C 111.625 248.000,110.000 247.775,110.000 246.366 C 110.000 245.985,107.706 241.179,106.579 239.200 C 106.266 238.650,105.363 236.850,104.572 235.200 C 103.781 233.550,102.505 231.030,101.738 229.600 C 100.970 228.170,100.177 226.452,99.975 225.782 C 99.773 225.112,98.991 223.966,98.236 223.235 L 96.864 221.906 96.013 223.453 C 95.544 224.304,94.913 225.450,94.609 226.000 C 94.306 226.550,93.405 228.350,92.607 230.000 C 91.809 231.650,90.909 233.450,90.607 234.000 C 90.305 234.550,89.405 236.350,88.607 238.000 C 87.809 239.650,86.919 241.450,86.631 242.000 C 86.342 242.550,85.552 244.080,84.875 245.400 L 83.644 247.800 73.371 247.907 C 62.259 248.022,61.256 247.865,62.741 246.240 C 63.163 245.778,63.628 245.004,63.775 244.520 C 63.921 244.036,64.741 242.326,65.597 240.720 C 66.453 239.114,67.985 236.180,69.002 234.200 C 70.018 232.220,71.807 228.800,72.977 226.600 C 75.986 220.942,78.000 216.881,78.000 216.473 C 78.000 216.281,78.360 215.798,78.800 215.400 C 79.240 215.002,79.600 214.492,79.600 214.268 C 79.600 213.593,82.437 208.068,83.040 207.567 C 83.348 207.311,83.600 206.911,83.600 206.677 C 83.600 206.444,83.985 205.458,84.455 204.486 C 85.268 202.806,85.278 202.653,84.655 201.346 C 84.295 200.591,84.000 199.743,84.000 199.462 C 84.000 199.181,83.680 198.602,83.289 198.175 C 82.475 197.288,79.600 191.584,79.600 190.858 C 79.600 190.592,79.344 190.277,79.031 190.157 C 78.718 190.037,78.163 189.187,77.798 188.269 C 77.432 187.351,76.901 186.330,76.617 186.000 C 76.333 185.670,75.884 184.725,75.620 183.900 C 75.355 183.075,74.990 182.400,74.809 182.400 C 74.628 182.400,73.606 180.678,72.540 178.573 C 69.740 173.050,69.055 171.775,68.552 171.153 C 68.306 170.849,67.887 169.925,67.621 169.100 C 67.355 168.275,66.992 167.600,66.815 167.600 C 66.637 167.600,66.178 166.925,65.795 166.100 C 65.411 165.275,64.829 164.292,64.500 163.915 C 62.310 161.404,66.857 160.795,82.200 161.546 M290.629 175.829 C 290.072 176.385,290.000 178.988,290.000 198.429 C 290.000 224.475,289.430 222.000,295.426 222.000 C 299.448 222.000,300.169 221.795,301.766 220.197 L 302.750 219.213 304.813 220.572 C 310.652 224.417,320.084 222.073,324.480 215.684 C 326.640 212.544,328.402 205.406,327.684 202.699 C 325.405 194.098,324.154 191.965,319.629 188.972 C 317.176 187.349,308.519 187.170,306.450 188.700 C 305.780 189.195,304.965 189.600,304.639 189.600 C 304.312 189.600,303.765 190.000,303.423 190.489 C 302.850 191.307,302.800 190.787,302.800 183.951 C 302.800 174.633,303.221 175.200,296.297 175.200 C 292.249 175.200,291.133 175.324,290.629 175.829 M301.520 176.080 C 301.858 176.418,302.000 178.709,302.000 183.831 C 302.000 191.358,302.328 192.933,303.579 191.425 C 306.361 188.073,314.900 186.948,319.000 189.393 C 323.257 191.931,325.085 194.798,326.370 200.954 L 327.173 204.800 326.360 208.696 C 325.367 213.451,321.152 219.943,319.013 220.014 C 318.786 220.021,317.880 220.375,317.000 220.800 C 313.476 222.502,305.654 221.475,303.637 219.045 C 302.659 217.866,301.028 218.233,300.281 219.800 L 299.613 221.200 295.883 221.200 C 290.019 221.200,290.619 223.735,290.490 198.417 L 290.380 176.770 291.690 176.201 C 293.363 175.474,300.822 175.382,301.520 176.080 M183.344 176.396 L 182.488 176.742 183.244 179.033 C 183.660 180.293,184.000 181.616,184.000 181.973 C 184.000 182.330,184.252 182.982,184.561 183.423 C 184.869 183.863,185.337 185.022,185.599 185.998 C 185.862 186.973,186.399 188.182,186.793 188.682 C 187.187 189.183,187.635 190.263,187.789 191.083 C 187.943 191.902,188.340 193.097,188.671 193.737 C 189.002 194.378,189.534 195.779,189.852 196.851 C 190.171 197.923,190.586 198.800,190.776 198.800 C 190.965 198.800,191.338 199.745,191.605 200.900 C 191.872 202.055,192.325 203.376,192.612 203.836 C 192.900 204.296,193.347 205.460,193.606 206.422 C 193.865 207.384,194.399 208.582,194.793 209.082 C 195.187 209.583,195.635 210.661,195.788 211.478 C 195.941 212.295,196.390 213.601,196.785 214.381 C 197.179 215.162,197.626 216.375,197.778 217.078 C 197.930 217.780,198.680 219.175,199.445 220.178 L 200.837 222.000 205.177 222.000 L 209.517 222.000 210.753 220.593 C 211.432 219.819,212.093 218.694,212.222 218.093 C 212.350 217.492,212.789 216.280,213.197 215.400 C 213.606 214.520,214.065 213.116,214.218 212.280 C 214.371 211.445,214.704 210.545,214.957 210.280 C 215.210 210.016,215.812 209.289,216.294 208.665 L 217.171 207.529 217.631 209.356 C 217.883 210.360,218.430 211.573,218.845 212.052 C 219.260 212.531,219.602 213.300,219.604 213.761 C 219.606 214.223,220.056 215.563,220.604 216.740 C 221.152 217.917,221.600 219.140,221.600 219.458 C 221.600 222.658,232.907 223.250,233.999 220.107 C 234.211 219.498,234.684 218.460,235.050 217.800 C 235.842 216.372,237.428 212.170,238.198 209.460 C 238.501 208.393,239.014 207.223,239.337 206.860 C 239.661 206.497,240.137 205.406,240.395 204.436 C 240.654 203.466,241.103 202.296,241.393 201.836 C 241.684 201.376,242.050 200.385,242.207 199.634 C 242.364 198.883,242.922 197.461,243.446 196.475 C 243.971 195.488,244.400 194.430,244.400 194.124 C 244.400 193.818,244.745 192.892,245.167 192.065 C 245.588 191.239,246.059 189.895,246.212 189.078 C 246.365 188.261,246.813 187.183,247.207 186.682 C 247.601 186.182,248.135 184.984,248.394 184.022 C 248.653 183.060,249.131 181.867,249.455 181.373 C 249.839 180.787,250.002 179.727,249.922 178.336 L 249.800 176.200 244.080 176.089 L 238.361 175.978 237.229 177.110 C 236.498 177.841,235.993 178.871,235.804 180.021 C 235.643 180.999,235.081 182.717,234.555 183.839 C 234.030 184.960,233.600 186.275,233.600 186.761 C 233.600 187.246,233.262 188.399,232.849 189.322 C 232.436 190.245,231.970 191.900,231.814 193.000 C 231.658 194.100,231.190 195.553,230.776 196.230 C 230.361 196.906,229.817 198.436,229.567 199.630 C 229.052 202.084,227.275 204.852,226.794 203.948 C 225.183 200.920,225.510 194.516,227.463 190.844 C 227.978 189.874,228.400 188.738,228.400 188.318 C 228.400 187.899,228.744 186.801,229.164 185.878 C 229.584 184.955,230.054 183.480,230.209 182.600 C 230.363 181.720,230.711 180.640,230.982 180.200 C 233.079 176.788,232.217 176.000,226.384 176.000 C 220.531 176.000,220.540 175.996,219.742 178.743 C 219.381 179.985,218.858 181.360,218.580 181.800 C 218.301 182.240,217.856 183.672,217.591 184.983 L 217.109 187.365 216.504 186.183 C 216.172 185.532,215.655 184.718,215.355 184.374 C 215.056 184.030,214.559 182.419,214.252 180.794 C 213.420 176.393,212.827 176.000,207.027 176.000 C 203.478 176.000,202.390 176.131,201.997 176.603 C 201.294 177.451,201.711 180.506,202.701 181.765 C 203.145 182.329,203.635 183.648,203.792 184.695 C 203.948 185.743,204.418 187.355,204.838 188.278 C 205.257 189.201,205.600 190.299,205.600 190.718 C 205.600 191.138,206.029 192.288,206.554 193.275 C 208.448 196.837,208.271 200.475,206.082 202.968 C 204.794 204.434,204.421 204.165,204.405 201.760 C 204.402 201.297,203.963 200.098,203.430 199.094 C 202.896 198.091,202.333 196.399,202.178 195.335 C 202.023 194.271,201.650 192.914,201.348 192.320 C 201.047 191.726,200.600 190.286,200.356 189.120 C 200.112 187.954,199.591 186.460,199.199 185.800 C 198.806 185.140,198.356 183.790,198.199 182.800 C 197.881 180.805,196.178 176.764,195.460 176.306 C 194.819 175.896,184.390 175.974,183.344 176.396 M328.480 176.480 C 327.447 177.513,328.835 181.003,330.989 182.791 C 331.325 183.070,331.603 183.501,331.607 183.749 C 331.615 184.245,333.642 187.449,334.549 188.400 C 334.864 188.730,335.443 189.675,335.835 190.500 C 336.227 191.325,336.673 192.000,336.826 192.000 C 336.978 192.000,337.327 192.540,337.600 193.200 C 337.873 193.860,338.252 194.400,338.440 194.400 C 338.629 194.400,339.168 195.154,339.638 196.075 C 340.108 196.996,340.734 197.991,341.029 198.287 C 341.563 198.820,341.432 199.740,340.685 200.705 C 340.470 200.982,340.003 201.736,339.647 202.379 C 339.291 203.022,338.356 204.505,337.570 205.674 C 335.839 208.246,334.946 209.580,333.501 211.750 C 332.897 212.657,332.129 213.985,331.796 214.700 C 331.462 215.415,331.015 216.000,330.801 216.000 C 330.296 216.000,328.400 219.746,328.400 220.744 C 328.400 221.857,329.105 222.000,334.607 222.000 C 340.411 222.000,341.429 221.706,342.225 219.803 C 342.547 219.031,342.995 218.400,343.220 218.400 C 343.444 218.400,343.990 217.635,344.431 216.700 C 346.155 213.051,347.151 211.364,348.100 210.483 L 349.089 209.565 349.597 210.792 C 349.876 211.467,350.326 212.150,350.597 212.309 C 350.868 212.469,351.481 213.410,351.959 214.400 C 353.724 218.054,354.463 219.290,355.681 220.629 L 356.929 222.000 362.038 222.000 C 368.812 222.000,369.370 221.788,368.577 219.515 C 368.248 218.572,367.716 217.602,367.394 217.359 C 367.072 217.116,366.547 216.292,366.227 215.527 C 365.908 214.762,365.366 213.904,365.023 213.619 C 364.680 213.335,364.400 212.925,364.400 212.709 C 364.400 212.492,363.995 211.817,363.500 211.208 C 363.005 210.599,362.240 209.499,361.800 208.764 C 361.360 208.029,360.730 207.044,360.400 206.574 C 360.070 206.104,359.459 205.197,359.043 204.560 C 358.626 203.922,357.934 202.889,357.505 202.265 C 356.069 200.178,355.953 198.981,357.031 197.393 C 357.564 196.607,358.000 195.799,358.000 195.596 C 358.000 195.394,358.495 194.637,359.100 193.914 C 360.736 191.960,362.000 190.087,362.000 189.616 C 362.000 189.387,362.350 188.850,362.779 188.421 C 363.207 187.993,363.856 187.065,364.221 186.359 C 364.586 185.653,365.049 184.878,365.249 184.638 C 368.172 181.127,369.978 177.266,369.023 176.567 C 366.708 174.875,355.600 176.146,355.600 178.103 C 355.600 178.348,355.258 178.920,354.840 179.374 C 354.421 179.828,353.429 181.435,352.634 182.945 C 351.838 184.454,350.838 186.134,350.410 186.678 C 349.983 187.221,349.523 188.014,349.388 188.438 C 349.073 189.429,346.609 187.287,346.203 185.670 C 346.064 185.116,345.602 184.220,345.175 183.678 C 344.749 183.136,344.400 182.471,344.400 182.201 C 344.400 181.931,343.860 181.031,343.200 180.200 C 342.540 179.369,342.000 178.442,342.000 178.139 C 342.000 176.289,330.128 174.832,328.480 176.480 M196.237 179.046 C 196.784 180.282,197.478 182.307,197.781 183.546 C 198.083 184.786,198.688 186.700,199.126 187.800 C 199.563 188.900,200.134 190.610,200.394 191.600 C 201.751 196.758,202.408 198.843,202.940 199.678 C 203.263 200.185,203.735 201.632,203.990 202.893 C 204.592 205.867,204.823 205.946,206.527 203.759 C 208.650 201.035,209.017 195.915,207.285 193.200 C 206.934 192.650,206.333 191.120,205.950 189.800 C 204.310 184.159,203.618 182.112,202.870 180.689 C 202.314 179.633,202.163 178.850,202.366 178.089 L 202.656 177.000 207.047 176.888 C 212.421 176.750,212.841 177.041,213.791 181.555 C 214.130 183.168,214.766 184.990,215.204 185.605 C 215.642 186.220,216.000 186.899,216.000 187.113 C 216.000 189.510,217.732 188.039,218.152 185.285 C 218.296 184.342,218.771 182.905,219.207 182.091 C 219.643 181.278,220.000 180.282,220.000 179.880 C 220.000 179.019,220.733 177.525,221.360 177.106 C 221.602 176.944,223.896 176.809,226.458 176.806 L 231.116 176.800 230.792 178.100 C 230.614 178.815,230.079 180.660,229.604 182.200 C 229.130 183.740,228.491 185.900,228.185 187.000 C 227.880 188.100,227.275 189.720,226.842 190.600 C 226.409 191.480,225.660 193.505,225.177 195.100 L 224.300 198.000 225.184 200.900 C 226.623 205.619,226.668 205.699,227.632 205.183 C 228.601 204.664,229.978 201.863,229.991 200.385 C 229.996 199.826,230.368 198.656,230.819 197.785 C 231.269 196.913,231.882 195.210,232.180 194.000 C 232.478 192.790,233.010 191.012,233.361 190.050 C 233.713 189.087,234.000 187.899,234.000 187.409 C 234.000 186.920,234.437 185.698,234.970 184.694 C 235.504 183.691,236.066 182.031,236.220 181.006 C 236.381 179.931,236.920 178.643,237.494 177.961 L 238.490 176.778 243.945 176.889 L 249.400 177.000 249.339 178.400 C 249.270 179.996,247.719 184.571,246.752 186.033 C 246.396 186.571,245.969 187.639,245.804 188.406 C 245.638 189.173,245.186 190.430,244.800 191.200 C 244.414 191.970,243.966 193.230,243.804 194.000 C 243.643 194.770,243.277 195.670,242.990 196.000 C 242.503 196.562,241.539 199.018,240.173 203.184 C 239.851 204.166,239.140 205.866,238.594 206.963 C 238.047 208.060,237.600 209.199,237.600 209.494 C 237.600 209.790,237.264 210.700,236.854 211.516 C 236.444 212.332,235.989 213.657,235.843 214.460 C 235.698 215.263,235.315 216.139,234.992 216.406 C 234.670 216.674,234.217 217.593,233.987 218.448 C 233.329 220.894,232.347 221.297,227.446 221.137 C 222.381 220.971,222.990 221.580,220.357 214.043 C 219.942 212.857,219.436 211.684,219.232 211.438 C 219.027 211.192,218.471 209.951,217.996 208.682 L 217.133 206.373 215.714 208.232 C 214.933 209.254,214.069 210.835,213.793 211.745 C 213.517 212.655,213.011 214.030,212.670 214.800 C 212.328 215.570,211.945 216.692,211.819 217.293 C 211.692 217.894,211.032 219.019,210.353 219.793 L 209.117 221.200 204.989 221.200 L 200.862 221.200 199.431 218.913 C 198.644 217.654,198.000 216.297,198.000 215.897 C 198.000 215.496,197.640 214.462,197.200 213.600 C 196.760 212.738,196.400 211.795,196.400 211.506 C 196.400 211.216,195.866 209.904,195.213 208.590 C 194.559 207.275,194.019 205.979,194.013 205.708 C 193.997 205.083,192.191 200.419,190.949 197.794 C 190.427 196.691,190.000 195.518,190.000 195.188 C 190.000 194.858,189.664 193.961,189.253 193.194 C 188.843 192.427,188.369 191.173,188.201 190.406 C 188.033 189.639,187.604 188.571,187.248 188.033 C 186.500 186.902,184.946 182.639,184.307 179.961 C 183.558 176.830,183.611 176.800,189.809 176.800 L 195.244 176.800 196.237 179.046 M340.237 177.461 C 340.792 177.825,341.606 178.770,342.046 179.561 C 342.486 180.352,343.379 181.900,344.031 183.000 C 344.682 184.100,345.467 185.540,345.776 186.200 C 346.085 186.860,346.965 188.004,347.732 188.743 L 349.126 190.085 349.827 188.943 C 350.213 188.314,350.941 187.170,351.445 186.400 C 351.950 185.630,352.866 184.008,353.481 182.796 C 354.658 180.479,355.734 178.831,356.900 177.562 C 357.519 176.888,358.198 176.800,362.755 176.800 L 367.909 176.800 368.087 178.012 C 368.227 178.964,367.870 179.797,366.418 181.912 C 365.402 183.390,364.217 185.168,363.785 185.863 C 363.353 186.558,362.356 188.088,361.570 189.263 C 360.783 190.438,359.843 191.850,359.481 192.400 C 359.119 192.950,358.193 194.300,357.423 195.400 C 355.038 198.809,355.567 201.847,359.238 205.826 C 359.657 206.280,360.000 206.767,360.000 206.908 C 360.000 207.162,361.196 209.074,362.811 211.400 C 363.269 212.060,364.254 213.590,365.000 214.800 C 365.746 216.010,366.607 217.270,366.913 217.600 C 367.867 218.629,368.033 219.130,367.769 220.182 L 367.513 221.200 362.257 221.200 L 357.000 221.200 355.919 219.845 C 355.324 219.100,354.178 217.255,353.373 215.745 C 352.567 214.235,351.285 212.050,350.525 210.889 L 349.142 208.777 347.871 209.833 C 346.652 210.846,345.751 212.266,344.051 215.856 C 343.619 216.767,343.076 217.629,342.844 217.773 C 342.611 217.917,342.135 218.638,341.784 219.377 C 340.982 221.066,340.495 221.188,334.500 221.195 L 329.600 221.200 329.600 220.214 C 329.600 219.101,330.780 216.400,331.266 216.400 C 331.441 216.400,331.954 215.725,332.407 214.900 C 333.613 212.701,334.818 210.735,336.430 208.332 C 337.217 207.159,338.156 205.750,338.517 205.200 C 338.878 204.650,339.728 203.417,340.405 202.459 C 342.137 200.010,342.269 198.896,341.025 197.222 C 340.461 196.465,340.000 195.641,340.000 195.392 C 340.000 195.143,339.550 194.517,339.000 194.000 C 338.450 193.483,338.000 192.920,338.000 192.748 C 338.000 192.420,336.531 190.070,335.313 188.451 C 334.277 187.072,333.330 185.596,332.441 183.973 C 332.010 183.189,331.387 182.321,331.055 182.046 C 330.222 181.354,328.800 178.543,328.800 177.588 C 328.800 176.488,338.586 176.379,340.237 177.461 M263.000 187.843 C 258.207 189.023,252.676 194.206,251.671 198.459 C 251.445 199.417,250.984 200.920,250.647 201.800 C 249.567 204.624,250.988 212.177,253.024 214.427 C 253.341 214.777,253.600 215.243,253.600 215.462 C 253.600 215.681,254.252 216.387,255.049 217.030 C 255.846 217.674,257.023 218.695,257.663 219.300 C 258.304 219.905,259.011 220.400,259.236 220.400 C 259.460 220.400,260.489 220.797,261.522 221.283 C 264.314 222.595,274.194 222.589,276.594 221.274 C 277.471 220.793,278.408 220.400,278.678 220.400 C 278.947 220.400,279.670 219.948,280.284 219.396 C 280.898 218.843,282.086 217.796,282.926 217.069 C 286.035 214.375,285.298 211.600,281.472 211.600 C 280.948 211.600,279.954 211.060,279.263 210.400 C 277.468 208.684,275.087 208.684,274.201 210.399 C 272.512 213.664,264.800 213.353,264.800 210.020 L 264.800 208.800 275.100 208.794 C 288.265 208.787,289.045 208.383,287.389 202.439 C 287.046 201.208,286.575 199.417,286.342 198.459 C 285.518 195.078,282.106 191.231,277.984 189.038 C 275.839 187.897,265.977 187.110,263.000 187.843 M276.284 189.140 C 277.210 189.613,278.180 190.000,278.440 190.000 C 279.068 190.000,284.000 194.348,284.000 194.902 C 284.000 195.141,284.291 195.659,284.648 196.053 C 285.484 196.977,286.769 202.402,286.786 205.086 C 286.806 208.023,286.899 208.000,275.106 208.000 C 264.195 208.000,264.000 208.037,264.000 210.077 C 264.000 213.971,271.263 214.737,274.784 211.216 C 275.812 210.188,276.826 210.184,278.490 211.199 C 279.211 211.638,280.070 211.999,280.400 212.001 C 284.127 212.024,285.141 214.170,282.521 216.490 C 281.708 217.211,280.673 218.176,280.221 218.636 C 278.595 220.291,273.640 221.600,269.000 221.600 C 264.354 221.600,259.381 220.284,257.796 218.636 C 257.355 218.176,256.452 217.350,255.790 216.800 C 253.992 215.306,252.594 212.607,251.609 208.733 L 250.727 205.267 251.622 201.333 C 252.908 195.686,256.385 190.901,260.000 189.805 C 260.550 189.639,261.206 189.338,261.457 189.137 C 263.205 187.744,273.555 187.745,276.284 189.140 M265.414 197.241 C 262.188 200.074,263.614 201.671,269.230 201.514 L 273.344 201.400 273.675 200.200 C 274.609 196.809,268.428 194.595,265.414 197.241 M272.014 198.013 C 274.181 200.038,273.088 200.800,268.021 200.800 C 264.169 200.800,263.398 199.842,265.704 197.920 C 267.840 196.140,270.043 196.172,272.014 198.013 M305.669 198.603 C 303.376 200.532,302.000 202.926,302.000 204.985 C 302.000 212.976,312.284 214.957,314.407 207.375 C 316.207 200.945,310.133 194.847,305.669 198.603 M312.315 199.853 C 317.530 205.159,310.838 215.193,305.263 210.424 C 302.883 208.388,301.801 203.727,303.400 202.400 C 303.730 202.126,304.000 201.689,304.000 201.429 C 304.000 198.456,309.851 197.347,312.315 199.853 M334.478 240.482 C 334.223 240.737,334.189 241.246,334.392 241.779 C 334.614 242.362,334.474 243.384,333.976 244.828 C 332.353 249.528,333.416 254.613,335.794 253.530 C 337.042 252.961,337.296 252.342,337.572 249.200 C 337.935 245.059,339.313 245.368,339.617 249.659 C 339.866 253.159,340.366 254.000,342.200 254.000 C 344.128 254.000,344.612 253.177,343.508 251.774 C 341.973 249.823,342.196 246.326,343.879 245.976 C 345.143 245.713,345.162 245.731,345.584 247.698 C 345.818 248.792,346.368 250.141,346.805 250.697 C 347.814 251.980,347.812 253.471,346.800 255.000 C 345.350 257.189,346.178 258.531,348.340 257.499 C 349.599 256.899,352.381 252.101,352.414 250.474 C 352.421 250.103,352.775 249.080,353.200 248.200 C 354.335 245.850,353.745 242.825,352.427 244.237 C 352.241 244.437,351.367 245.444,350.486 246.476 L 348.883 248.353 348.450 246.632 C 347.961 244.689,347.124 243.790,346.151 244.163 C 344.723 244.711,342.739 243.951,342.193 242.648 C 341.906 241.961,341.534 241.265,341.368 241.099 C 340.988 240.722,339.600 241.941,339.600 242.652 C 339.600 243.834,337.269 244.512,336.172 243.650 C 335.592 243.193,335.345 242.757,335.584 242.610 C 335.811 242.470,336.169 242.031,336.382 241.634 C 336.855 240.750,335.208 239.752,334.478 240.482 M215.961 241.500 C 215.296 243.247,215.653 253.132,216.400 253.636 C 217.753 254.550,222.608 253.819,224.350 252.440 C 226.686 250.590,227.291 244.890,225.376 242.772 C 223.046 240.197,216.780 239.350,215.961 241.500 M231.260 241.985 C 230.559 242.857,229.875 244.162,229.740 244.885 C 229.605 245.608,229.164 246.753,228.760 247.428 C 227.556 249.438,227.303 253.013,228.325 253.560 C 229.222 254.040,229.279 253.992,230.393 251.812 C 231.483 249.678,234.689 249.802,235.605 252.013 C 236.299 253.689,236.977 254.151,237.615 253.382 C 238.310 252.544,238.204 248.891,237.459 248.055 C 237.137 247.695,236.664 246.609,236.406 245.642 C 235.915 243.796,233.708 240.442,232.967 240.416 C 232.729 240.407,231.961 241.113,231.260 241.985 M242.112 241.519 C 238.509 243.776,238.392 250.485,241.917 252.755 C 244.956 254.713,248.510 254.078,250.315 251.255 C 250.686 250.675,251.217 249.962,251.495 249.671 C 252.333 248.794,252.138 245.049,251.210 244.209 C 250.776 243.816,250.318 243.170,250.192 242.774 C 249.504 240.606,244.749 239.868,242.112 241.519 M259.857 241.306 C 255.587 243.523,255.550 250.174,259.792 252.900 C 262.154 254.418,263.876 254.346,266.847 252.604 C 268.757 251.485,269.273 251.325,269.454 251.796 C 270.362 254.162,274.725 254.659,276.922 252.646 C 280.532 249.340,278.470 244.000,273.584 244.000 L 270.838 244.000 269.702 245.700 C 269.077 246.635,268.352 247.895,268.091 248.500 C 267.770 249.246,267.320 249.600,266.693 249.600 C 266.185 249.600,265.105 249.938,264.294 250.352 C 263.051 250.986,262.746 251.017,262.360 250.552 C 262.108 250.248,261.663 250.000,261.370 250.000 C 260.672 250.000,260.061 247.727,260.308 246.047 C 260.550 244.395,262.303 243.468,264.039 244.074 C 266.988 245.102,269.479 243.061,266.866 241.758 C 266.353 241.502,265.732 241.092,265.486 240.846 C 264.794 240.154,261.568 240.417,259.857 241.306 M218.595 241.985 C 218.732 242.417,218.654 243.125,218.422 243.559 C 217.892 244.550,217.869 250.004,218.390 251.374 C 218.903 252.724,221.600 252.922,221.600 251.610 C 221.600 251.144,222.073 250.576,222.755 250.223 C 223.964 249.598,224.332 248.357,224.079 245.764 C 223.957 244.507,222.160 243.218,220.486 243.187 C 219.240 243.164,221.210 242.000,222.495 242.000 C 227.015 242.000,227.202 251.367,222.700 252.277 C 222.095 252.400,221.600 252.657,221.600 252.850 C 221.600 253.834,216.784 253.209,216.390 252.174 C 215.258 249.198,216.113 241.200,217.563 241.200 C 217.994 241.200,218.458 241.553,218.595 241.985 M234.376 243.026 C 235.054 244.031,235.792 245.674,236.017 246.677 C 236.242 247.681,236.690 248.879,237.013 249.340 C 237.666 250.272,237.774 251.907,237.238 252.752 C 236.980 253.160,236.756 252.936,236.376 251.885 C 235.276 248.842,230.841 248.714,229.671 251.691 C 229.252 252.759,228.966 253.073,228.739 252.716 C 228.193 251.854,228.361 249.834,229.062 248.833 C 229.426 248.313,229.874 247.087,230.057 246.108 C 230.324 244.676,232.413 241.200,233.005 241.200 C 233.081 241.200,233.698 242.022,234.376 243.026 M244.800 242.667 C 244.800 242.983,244.191 243.495,243.447 243.806 C 241.360 244.678,240.913 249.601,242.865 250.221 C 243.294 250.357,243.811 250.903,244.013 251.434 C 244.523 252.776,246.543 252.787,247.278 251.452 C 249.848 246.786,249.709 247.238,249.016 245.776 C 248.308 244.284,247.001 243.200,245.911 243.200 C 244.982 243.200,245.000 242.535,245.943 242.031 C 247.196 241.360,249.468 242.218,249.785 243.483 C 249.932 244.070,250.352 244.769,250.717 245.036 C 251.647 245.716,251.628 248.728,250.691 249.253 C 250.311 249.466,250.000 249.955,250.000 250.340 C 250.000 251.307,249.215 252.000,248.120 252.000 C 247.569 252.000,247.200 252.241,247.200 252.600 C 247.200 253.033,246.756 253.200,245.600 253.200 C 244.720 253.200,244.000 253.056,244.000 252.880 C 244.000 252.705,243.353 252.327,242.563 252.041 C 239.399 250.897,238.968 245.013,241.868 242.561 C 242.962 241.635,244.800 241.702,244.800 242.667 M267.248 243.035 C 267.240 243.555,266.138 243.715,264.578 243.422 C 263.171 243.158,263.015 242.187,264.334 241.902 C 265.159 241.724,267.257 242.540,267.248 243.035 M343.268 244.622 C 344.139 244.898,344.137 244.906,343.101 245.449 C 341.408 246.336,341.131 249.901,342.604 251.846 C 343.439 252.949,343.334 253.200,342.039 253.200 C 340.621 253.200,340.000 251.785,340.000 248.556 C 340.000 246.918,339.809 246.253,339.166 245.654 C 338.470 245.006,338.428 244.822,338.912 244.539 C 339.231 244.352,339.809 243.580,340.197 242.821 L 340.902 241.443 341.646 242.893 C 342.055 243.690,342.785 244.468,343.268 244.622 M262.533 242.569 C 262.676 242.941,262.343 243.281,261.573 243.549 C 259.473 244.281,258.882 248.898,260.700 250.367 C 261.131 250.715,261.594 251.315,261.729 251.700 C 262.096 252.746,264.400 252.669,264.400 251.611 C 264.400 250.632,266.602 249.914,267.772 250.511 C 268.756 251.013,267.655 252.000,266.111 252.000 C 265.596 252.000,265.071 252.270,264.945 252.600 C 264.649 253.372,261.870 253.408,261.240 252.648 C 260.988 252.345,260.256 251.991,259.614 251.863 C 257.056 251.351,256.834 243.410,259.350 242.394 C 260.683 241.856,262.293 241.944,262.533 242.569 M222.200 244.516 C 224.194 245.522,224.256 248.804,222.300 249.810 C 218.757 251.632,218.416 251.398,218.405 247.133 C 218.397 243.532,219.179 242.992,222.200 244.516 M290.603 243.931 C 290.491 244.043,288.250 244.117,285.624 244.096 C 279.853 244.051,279.844 244.057,279.818 248.339 C 279.783 254.161,281.994 255.994,282.700 250.730 C 282.962 248.774,284.285 246.296,284.949 246.515 C 285.201 246.598,285.513 248.039,285.655 249.773 C 286.061 254.727,288.407 255.485,289.003 250.854 C 289.625 246.020,291.397 244.905,291.789 249.100 C 292.162 253.101,292.332 253.672,293.104 253.523 C 294.673 253.221,295.341 248.712,294.277 245.606 C 293.828 244.293,291.364 243.170,290.603 243.931 M301.800 243.837 C 301.360 243.903,299.979 244.067,298.730 244.203 C 296.049 244.495,295.600 245.236,295.600 249.371 C 295.600 252.412,296.285 253.585,297.886 253.288 C 299.265 253.032,299.586 252.572,299.594 250.846 C 299.601 249.182,300.402 246.400,300.873 246.400 C 301.448 246.400,302.000 248.334,302.000 250.350 C 302.000 252.782,302.666 253.749,304.092 253.391 C 305.206 253.112,305.303 252.864,305.812 249.000 C 306.332 245.049,308.000 245.219,308.000 249.223 C 308.000 253.532,309.076 254.333,312.059 252.244 C 312.896 251.658,312.982 251.688,313.666 252.812 C 314.484 254.157,316.792 254.479,318.206 253.445 C 318.857 252.969,319.096 252.976,319.885 253.492 C 320.623 253.976,320.922 253.997,321.402 253.598 C 322.247 252.897,322.267 245.119,321.426 244.421 C 320.170 243.379,318.800 245.263,318.800 248.032 C 318.800 248.435,318.361 249.411,317.824 250.202 L 316.849 251.640 316.427 250.120 C 316.194 249.284,316.003 247.767,316.002 246.749 C 315.999 243.924,314.315 243.319,312.083 245.341 L 311.166 246.171 310.276 245.054 C 309.444 244.011,309.216 243.945,306.793 244.054 C 305.367 244.118,303.840 244.069,303.400 243.945 C 302.960 243.821,302.240 243.772,301.800 243.837 M328.602 243.931 C 328.506 244.027,327.516 244.085,326.402 244.059 C 323.850 244.002,323.476 244.746,323.667 249.486 C 323.867 254.426,325.765 255.619,326.261 251.116 C 326.593 248.096,326.789 247.626,327.967 247.017 C 329.405 246.273,329.600 246.628,329.600 249.988 C 329.600 251.730,329.800 252.548,330.400 253.256 L 331.200 254.200 332.044 253.201 C 333.009 252.060,333.024 245.833,332.064 244.678 C 331.601 244.119,328.979 243.554,328.602 243.931 M247.505 244.500 C 249.977 247.569,247.012 251.842,243.746 249.915 C 241.989 248.879,241.680 245.064,243.300 244.412 C 244.632 243.877,247.044 243.927,247.505 244.500 M276.711 245.577 C 278.656 247.354,278.402 252.000,276.360 252.000 C 275.598 252.000,275.533 251.852,275.786 250.700 C 276.664 246.705,275.435 244.767,272.693 245.820 C 270.642 246.607,271.789 252.512,273.956 252.321 C 274.787 252.247,275.392 252.396,275.496 252.700 C 275.616 253.052,275.125 253.200,273.833 253.200 C 272.825 253.200,272.000 253.020,272.000 252.800 C 272.000 252.580,271.789 252.400,271.531 252.400 C 269.319 252.400,268.779 247.560,270.769 245.569 C 272.424 243.915,274.894 243.918,276.711 245.577 M287.840 244.706 C 288.749 245.313,289.244 246.770,288.814 247.574 C 288.586 247.999,288.400 248.908,288.400 249.594 C 288.400 250.279,288.100 251.416,287.734 252.120 L 287.067 253.400 286.552 252.200 C 286.268 251.540,286.028 250.001,286.018 248.780 C 285.999 246.465,285.537 245.600,284.320 245.600 C 283.498 245.600,283.350 244.968,284.100 244.665 C 284.876 244.352,287.350 244.379,287.840 244.706 M293.426 244.842 C 294.003 245.775,294.107 250.376,293.580 251.648 C 292.898 253.295,292.472 252.394,292.422 249.200 C 292.382 246.610,292.174 246.198,290.605 245.602 C 289.668 245.246,289.547 245.078,290.014 244.783 C 290.828 244.268,293.095 244.307,293.426 244.842 M304.546 245.229 C 305.760 246.184,305.820 246.569,304.998 248.146 C 304.669 248.776,304.400 249.685,304.400 250.166 C 304.400 251.001,303.734 252.000,303.177 252.000 C 303.032 252.000,302.804 250.950,302.670 249.667 C 302.213 245.289,300.182 243.989,299.458 247.609 C 299.319 248.306,298.967 248.800,298.610 248.800 C 298.204 248.800,298.000 249.187,298.000 249.957 C 298.000 250.617,297.742 251.213,297.400 251.345 C 296.900 251.537,296.800 251.081,296.800 248.611 L 296.800 245.646 298.700 245.065 C 301.490 244.211,303.317 244.262,304.546 245.229 M309.788 245.709 C 310.160 246.600,310.249 247.708,310.067 249.176 C 309.732 251.882,308.817 252.412,308.760 249.933 C 308.687 246.771,308.291 246.068,306.211 245.407 C 305.087 245.051,306.174 244.414,307.920 244.406 C 309.036 244.401,309.326 244.603,309.788 245.709 M326.764 245.047 C 326.854 245.128,326.719 245.892,326.464 246.744 C 326.209 247.596,325.992 248.902,325.982 249.646 C 325.972 250.391,325.732 251.540,325.449 252.200 L 324.934 253.400 324.415 251.837 C 323.913 250.324,324.047 245.694,324.620 244.767 C 324.833 244.422,326.280 244.611,326.764 245.047 M331.610 245.426 C 332.211 247.008,332.094 251.720,331.430 252.624 C 330.628 253.716,330.000 252.016,330.000 248.754 C 330.000 246.374,329.991 246.355,328.531 245.746 C 326.784 245.015,327.312 244.416,329.710 244.406 C 330.965 244.401,331.286 244.573,331.610 245.426 M336.296 248.145 C 336.464 250.238,336.363 250.996,335.802 251.853 L 335.097 252.929 334.563 251.964 C 333.912 250.790,333.853 247.947,334.436 245.848 C 335.075 243.546,336.021 244.714,336.296 248.145 M282.643 245.500 C 283.345 246.424,283.332 247.125,282.600 247.857 C 282.270 248.187,281.994 249.029,281.986 249.729 C 281.978 250.428,281.735 251.427,281.445 251.949 L 280.919 252.899 280.665 251.949 C 279.550 247.785,280.939 243.256,282.643 245.500 M315.571 248.410 C 315.898 251.056,316.177 251.954,316.839 252.500 C 317.683 253.195,317.679 253.200,316.290 253.200 C 313.805 253.200,312.625 249.046,314.229 245.943 C 315.047 244.362,315.078 244.419,315.571 248.410 M321.554 249.400 C 321.587 252.167,321.104 253.814,320.500 252.991 C 320.335 252.766,319.687 252.255,319.059 251.855 L 317.919 251.128 318.908 250.064 C 319.490 249.438,320.007 248.275,320.164 247.238 C 320.738 243.427,321.496 244.605,321.554 249.400 M347.610 245.826 C 347.824 246.390,348.000 247.370,348.000 248.002 C 348.000 249.736,348.792 249.914,350.011 248.454 C 352.053 246.008,352.807 250.140,350.787 252.708 C 350.354 253.258,350.000 254.009,350.000 254.377 C 350.000 254.746,349.741 255.396,349.424 255.824 C 348.516 257.049,347.395 255.792,347.992 254.220 C 348.558 252.734,348.102 250.356,347.100 249.558 C 346.001 248.683,345.559 244.800,346.559 244.800 C 346.922 244.800,347.395 245.262,347.610 245.826 M232.480 245.680 C 231.402 246.758,232.340 249.279,233.470 248.342 C 234.037 247.872,234.152 246.862,233.757 245.833 C 233.467 245.076,233.125 245.035,232.480 245.680 M233.354 247.377 C 233.107 248.019,233.046 248.025,232.719 247.441 C 232.287 246.668,232.717 245.757,233.258 246.298 C 233.461 246.501,233.504 246.986,233.354 247.377 M275.120 246.880 C 276.160 247.920,275.701 249.996,274.300 250.586 C 273.084 251.099,272.977 251.078,272.648 250.267 C 271.556 247.580,273.355 245.115,275.120 246.880 " stroke="none" fill="#a331f9" fill-rule="evenodd"></path><path id="path2" d="M0.000 200.000 L 0.000 400.000 200.000 400.000 L 400.000 400.000 400.000 200.000 L 400.000 0.000 200.000 0.000 L 0.000 0.000 0.000 200.000 M110.000 135.147 C 111.430 135.585,113.680 136.069,115.000 136.222 C 116.320 136.376,117.850 136.727,118.400 137.002 C 118.950 137.278,120.365 137.707,121.543 137.956 C 122.722 138.206,124.141 138.768,124.697 139.205 C 125.253 139.642,125.890 140.000,126.112 140.000 C 126.834 140.000,132.264 142.754,132.788 143.386 C 133.069 143.724,133.511 144.000,133.771 144.000 C 134.226 144.000,135.883 145.112,138.000 146.836 C 138.550 147.285,139.953 148.352,141.118 149.209 C 145.280 152.270,150.178 157.218,152.800 161.009 C 153.350 161.804,154.201 162.959,154.692 163.575 C 156.496 165.842,162.000 176.671,162.000 177.953 C 162.000 178.312,162.426 179.415,162.947 180.403 C 163.468 181.391,164.021 183.070,164.177 184.133 C 164.332 185.197,164.713 186.787,165.024 187.668 C 166.361 191.458,166.728 208.225,165.606 214.230 C 164.714 218.995,163.562 223.380,163.047 223.965 C 162.740 224.314,162.361 225.230,162.205 226.000 C 162.049 226.770,161.586 228.120,161.175 229.000 C 160.764 229.880,160.148 231.230,159.806 232.000 C 158.782 234.306,155.870 239.400,154.800 240.759 C 147.978 249.422,143.259 254.360,139.209 257.072 C 137.994 257.885,136.812 258.771,136.582 259.040 C 136.352 259.309,134.732 260.282,132.982 261.201 C 131.232 262.121,129.350 263.116,128.800 263.411 C 126.138 264.843,123.675 265.904,122.468 266.136 C 121.735 266.277,120.696 266.738,120.160 267.160 C 119.624 267.582,118.247 268.056,117.101 268.214 C 115.954 268.371,114.293 268.759,113.408 269.074 C 109.846 270.346,90.116 270.706,85.000 269.593 C 80.201 268.549,76.556 267.504,76.014 267.015 C 75.676 266.711,74.860 266.334,74.200 266.178 C 72.956 265.883,69.345 264.373,67.600 263.418 C 67.050 263.117,65.354 262.216,63.832 261.417 C 62.309 260.617,60.480 259.476,59.767 258.882 C 59.054 258.287,57.820 257.350,57.024 256.800 C 53.997 254.708,46.453 247.574,45.200 245.617 C 44.870 245.102,44.060 243.942,43.400 243.039 C 42.740 242.136,41.677 240.588,41.037 239.599 C 40.398 238.609,39.580 237.350,39.219 236.800 C 38.859 236.250,38.058 234.720,37.439 233.400 C 36.820 232.080,35.793 229.920,35.157 228.600 C 34.520 227.280,34.000 225.930,34.000 225.600 C 34.000 225.270,33.645 223.920,33.212 222.600 C 32.778 221.280,32.144 219.030,31.802 217.600 C 31.459 216.170,31.003 214.370,30.788 213.600 C 30.363 212.080,30.229 193.898,30.630 192.101 C 30.765 191.495,31.142 190.404,31.468 189.676 C 31.794 188.947,32.247 187.156,32.474 185.695 C 32.702 184.233,33.136 182.659,33.440 182.195 C 33.743 181.732,34.176 180.383,34.400 179.197 C 34.625 178.012,35.148 176.672,35.561 176.221 C 35.975 175.769,36.435 174.827,36.583 174.128 C 36.730 173.428,37.101 172.648,37.405 172.396 C 37.710 172.143,38.168 171.275,38.424 170.468 C 38.679 169.661,39.093 168.820,39.344 168.600 C 39.970 168.050,42.264 164.257,42.589 163.234 C 42.735 162.775,43.105 162.400,43.413 162.400 C 43.720 162.400,44.172 162.026,44.416 161.570 C 44.661 161.113,45.162 160.404,45.530 159.994 C 45.899 159.584,46.740 158.571,47.400 157.743 C 49.266 155.401,53.163 151.595,55.876 149.464 C 57.233 148.399,58.440 147.274,58.559 146.964 C 58.678 146.654,59.070 146.400,59.430 146.400 C 59.790 146.400,60.619 145.950,61.273 145.400 C 61.927 144.850,62.707 144.400,63.008 144.400 C 63.309 144.400,63.790 144.068,64.077 143.661 C 64.365 143.255,65.320 142.692,66.200 142.411 C 67.080 142.129,68.070 141.674,68.400 141.400 C 68.730 141.126,69.661 140.689,70.468 140.430 C 71.275 140.171,72.144 139.708,72.399 139.402 C 72.653 139.095,73.883 138.638,75.131 138.385 C 76.379 138.133,77.780 137.686,78.243 137.391 C 78.707 137.097,80.236 136.647,81.641 136.393 C 83.045 136.138,84.826 135.652,85.597 135.314 C 88.962 133.836,105.355 133.724,110.000 135.147 M302.069 175.862 C 302.727 176.458,302.800 177.264,302.800 183.951 C 302.800 190.787,302.850 191.307,303.423 190.489 C 303.765 190.000,304.312 189.600,304.639 189.600 C 304.965 189.600,305.780 189.195,306.450 188.700 C 308.519 187.170,317.176 187.349,319.629 188.972 C 324.154 191.965,325.405 194.098,327.684 202.699 C 328.402 205.406,326.640 212.544,324.480 215.684 C 320.084 222.073,310.652 224.417,304.813 220.572 L 302.750 219.213 301.766 220.197 C 300.169 221.795,299.448 222.000,295.426 222.000 C 289.430 222.000,290.000 224.475,290.000 198.429 C 290.000 178.988,290.072 176.385,290.629 175.829 C 291.572 174.885,301.019 174.912,302.069 175.862 M195.460 176.306 C 196.178 176.764,197.881 180.805,198.199 182.800 C 198.356 183.790,198.806 185.140,199.199 185.800 C 199.591 186.460,200.112 187.954,200.356 189.120 C 200.600 190.286,201.047 191.726,201.348 192.320 C 201.650 192.914,202.023 194.271,202.178 195.335 C 202.333 196.399,202.896 198.091,203.430 199.094 C 203.963 200.098,204.402 201.297,204.405 201.760 C 204.421 204.165,204.794 204.434,206.082 202.968 C 208.271 200.475,208.448 196.837,206.554 193.275 C 206.029 192.288,205.600 191.138,205.600 190.718 C 205.600 190.299,205.257 189.201,204.838 188.278 C 204.418 187.355,203.948 185.743,203.792 184.695 C 203.635 183.648,203.145 182.329,202.701 181.765 C 201.711 180.506,201.294 177.451,201.997 176.603 C 202.390 176.131,203.478 176.000,207.027 176.000 C 212.827 176.000,213.420 176.393,214.252 180.794 C 214.559 182.419,215.056 184.030,215.355 184.374 C 215.655 184.718,216.172 185.532,216.504 186.183 L 217.109 187.365 217.591 184.983 C 217.856 183.672,218.301 182.240,218.580 181.800 C 218.858 181.360,219.381 179.985,219.742 178.743 C 220.540 175.996,220.531 176.000,226.384 176.000 C 232.217 176.000,233.079 176.788,230.982 180.200 C 230.711 180.640,230.363 181.720,230.209 182.600 C 230.054 183.480,229.584 184.955,229.164 185.878 C 228.744 186.801,228.400 187.899,228.400 188.318 C 228.400 188.738,227.978 189.874,227.463 190.844 C 225.510 194.516,225.183 200.920,226.794 203.948 C 227.275 204.852,229.052 202.084,229.567 199.630 C 229.817 198.436,230.361 196.906,230.776 196.230 C 231.190 195.553,231.658 194.100,231.814 193.000 C 231.970 191.900,232.436 190.245,232.849 189.322 C 233.262 188.399,233.600 187.246,233.600 186.761 C 233.600 186.275,234.030 184.960,234.555 183.839 C 235.081 182.717,235.643 180.999,235.804 180.021 C 235.993 178.871,236.498 177.841,237.229 177.110 L 238.361 175.978 244.080 176.089 L 249.800 176.200 249.922 178.336 C 250.002 179.727,249.839 180.787,249.455 181.373 C 249.131 181.867,248.653 183.060,248.394 184.022 C 248.135 184.984,247.601 186.182,247.207 186.682 C 246.813 187.183,246.365 188.261,246.212 189.078 C 246.059 189.895,245.588 191.239,245.167 192.065 C 244.745 192.892,244.400 193.818,244.400 194.124 C 244.400 194.430,243.971 195.488,243.446 196.475 C 242.922 197.461,242.364 198.883,242.207 199.634 C 242.050 200.385,241.684 201.376,241.393 201.836 C 241.103 202.296,240.654 203.466,240.395 204.436 C 240.137 205.406,239.661 206.497,239.337 206.860 C 239.014 207.223,238.501 208.393,238.198 209.460 C 237.428 212.170,235.842 216.372,235.050 217.800 C 234.684 218.460,234.211 219.498,233.999 220.107 C 232.907 223.250,221.600 222.658,221.600 219.458 C 221.600 219.140,221.152 217.917,220.604 216.740 C 220.056 215.563,219.606 214.223,219.604 213.761 C 219.602 213.300,219.260 212.531,218.845 212.052 C 218.430 211.573,217.883 210.360,217.631 209.356 L 217.171 207.529 216.294 208.665 C 215.812 209.289,215.210 210.016,214.957 210.280 C 214.704 210.545,214.371 211.445,214.218 212.280 C 214.065 213.116,213.606 214.520,213.197 215.400 C 212.789 216.280,212.350 217.492,212.222 218.093 C 212.093 218.694,211.432 219.819,210.753 220.593 L 209.517 222.000 205.177 222.000 L 200.837 222.000 199.445 220.178 C 198.680 219.175,197.930 217.780,197.778 217.078 C 197.626 216.375,197.179 215.162,196.785 214.381 C 196.390 213.601,195.941 212.295,195.788 211.478 C 195.635 210.661,195.187 209.583,194.793 209.082 C 194.399 208.582,193.865 207.384,193.606 206.422 C 193.347 205.460,192.900 204.296,192.612 203.836 C 192.325 203.376,191.872 202.055,191.605 200.900 C 191.338 199.745,190.965 198.800,190.776 198.800 C 190.586 198.800,190.171 197.923,189.852 196.851 C 189.534 195.779,189.002 194.378,188.671 193.737 C 188.340 193.097,187.943 191.902,187.789 191.083 C 187.635 190.263,187.187 189.183,186.793 188.682 C 186.399 188.182,185.862 186.973,185.599 185.998 C 185.337 185.022,184.869 183.863,184.561 183.423 C 184.252 182.982,184.000 182.330,184.000 181.973 C 184.000 181.616,183.660 180.293,183.244 179.033 L 182.488 176.742 183.344 176.396 C 184.390 175.974,194.819 175.896,195.460 176.306 M340.700 176.796 C 341.415 177.232,342.000 177.836,342.000 178.139 C 342.000 178.442,342.540 179.369,343.200 180.200 C 343.860 181.031,344.400 181.931,344.400 182.201 C 344.400 182.471,344.749 183.136,345.175 183.678 C 345.602 184.220,346.064 185.116,346.203 185.670 C 346.609 187.287,349.073 189.429,349.388 188.438 C 349.523 188.014,349.983 187.221,350.410 186.678 C 350.838 186.134,351.838 184.454,352.634 182.945 C 353.429 181.435,354.421 179.828,354.840 179.374 C 355.258 178.920,355.600 178.348,355.600 178.103 C 355.600 176.146,366.708 174.875,369.023 176.567 C 369.978 177.266,368.172 181.127,365.249 184.638 C 365.049 184.878,364.586 185.653,364.221 186.359 C 363.856 187.065,363.207 187.993,362.779 188.421 C 362.350 188.850,362.000 189.387,362.000 189.616 C 362.000 190.087,360.736 191.960,359.100 193.914 C 358.495 194.637,358.000 195.394,358.000 195.596 C 358.000 195.799,357.564 196.607,357.031 197.393 C 355.953 198.981,356.069 200.178,357.505 202.265 C 357.934 202.889,358.626 203.922,359.043 204.560 C 359.459 205.197,360.070 206.104,360.400 206.574 C 360.730 207.044,361.360 208.029,361.800 208.764 C 362.240 209.499,363.005 210.599,363.500 211.208 C 363.995 211.817,364.400 212.492,364.400 212.709 C 364.400 212.925,364.680 213.335,365.023 213.619 C 365.366 213.904,365.908 214.762,366.227 215.527 C 366.547 216.292,367.072 217.116,367.394 217.359 C 367.716 217.602,368.248 218.572,368.577 219.515 C 369.370 221.788,368.812 222.000,362.038 222.000 L 356.929 222.000 355.681 220.629 C 354.463 219.290,353.724 218.054,351.959 214.400 C 351.481 213.410,350.868 212.469,350.597 212.309 C 350.326 212.150,349.876 211.467,349.597 210.792 L 349.089 209.565 348.100 210.483 C 347.151 211.364,346.155 213.051,344.431 216.700 C 343.990 217.635,343.444 218.400,343.220 218.400 C 342.995 218.400,342.547 219.031,342.225 219.803 C 341.429 221.706,340.411 222.000,334.607 222.000 C 329.105 222.000,328.400 221.857,328.400 220.744 C 328.400 219.746,330.296 216.000,330.801 216.000 C 331.015 216.000,331.462 215.415,331.796 214.700 C 332.129 213.985,332.897 212.657,333.501 211.750 C 334.946 209.580,335.839 208.246,337.570 205.674 C 338.356 204.505,339.291 203.022,339.647 202.379 C 340.003 201.736,340.470 200.982,340.685 200.705 C 341.432 199.740,341.563 198.820,341.029 198.287 C 340.734 197.991,340.108 196.996,339.638 196.075 C 339.168 195.154,338.629 194.400,338.440 194.400 C 338.252 194.400,337.873 193.860,337.600 193.200 C 337.327 192.540,336.978 192.000,336.826 192.000 C 336.673 192.000,336.227 191.325,335.835 190.500 C 335.443 189.675,334.864 188.730,334.549 188.400 C 333.642 187.449,331.615 184.245,331.607 183.749 C 331.603 183.501,331.325 183.070,330.989 182.791 C 328.835 181.003,327.447 177.513,328.480 176.480 C 329.368 175.592,339.140 175.844,340.700 176.796 M277.984 189.038 C 282.106 191.231,285.518 195.078,286.342 198.459 C 286.575 199.417,287.046 201.208,287.389 202.439 C 289.045 208.383,288.265 208.787,275.100 208.794 L 264.800 208.800 264.800 210.020 C 264.800 213.353,272.512 213.664,274.201 210.399 C 275.087 208.684,277.468 208.684,279.263 210.400 C 279.954 211.060,280.948 211.600,281.472 211.600 C 285.298 211.600,286.035 214.375,282.926 217.069 C 282.086 217.796,280.898 218.843,280.284 219.396 C 279.670 219.948,278.947 220.400,278.678 220.400 C 278.408 220.400,277.471 220.793,276.594 221.274 C 274.194 222.589,264.314 222.595,261.522 221.283 C 260.489 220.797,259.460 220.400,259.236 220.400 C 259.011 220.400,258.304 219.905,257.663 219.300 C 257.023 218.695,255.846 217.674,255.049 217.030 C 254.252 216.387,253.600 215.681,253.600 215.462 C 253.600 215.243,253.341 214.777,253.024 214.427 C 250.988 212.177,249.567 204.624,250.647 201.800 C 250.984 200.920,251.445 199.417,251.671 198.459 C 252.676 194.206,258.207 189.023,263.000 187.843 C 265.977 187.110,275.839 187.897,277.984 189.038 M267.800 196.690 C 266.282 196.974,264.384 198.909,264.651 199.900 C 265.052 201.389,273.200 201.075,273.200 199.570 C 273.200 198.134,269.794 196.317,267.800 196.690 M307.800 198.328 C 306.579 198.463,304.000 200.567,304.000 201.429 C 304.000 201.689,303.730 202.126,303.400 202.400 C 302.622 203.046,302.599 206.721,303.363 208.195 C 305.783 212.859,312.278 212.610,313.638 207.800 C 315.178 202.357,312.384 197.822,307.800 198.328 M336.382 241.634 C 336.169 242.031,335.811 242.470,335.584 242.610 C 335.345 242.757,335.592 243.193,336.172 243.650 C 337.269 244.512,339.600 243.834,339.600 242.652 C 339.600 241.941,340.988 240.722,341.368 241.099 C 341.534 241.265,341.906 241.961,342.193 242.648 C 342.739 243.951,344.723 244.711,346.151 244.163 C 347.124 243.790,347.961 244.689,348.450 246.632 L 348.883 248.353 350.486 246.476 C 351.367 245.444,352.241 244.437,352.427 244.237 C 353.745 242.825,354.335 245.850,353.200 248.200 C 352.775 249.080,352.421 250.103,352.414 250.474 C 352.381 252.101,349.599 256.899,348.340 257.499 C 346.178 258.531,345.350 257.189,346.800 255.000 C 347.812 253.471,347.814 251.980,346.805 250.697 C 346.368 250.141,345.818 248.792,345.584 247.698 C 345.162 245.731,345.143 245.713,343.879 245.976 C 342.196 246.326,341.973 249.823,343.508 251.774 C 344.612 253.177,344.128 254.000,342.200 254.000 C 340.366 254.000,339.866 253.159,339.617 249.659 C 339.313 245.368,337.935 245.059,337.572 249.200 C 337.296 252.342,337.042 252.961,335.794 253.530 C 333.416 254.613,332.353 249.528,333.976 244.828 C 334.474 243.384,334.614 242.362,334.392 241.779 C 333.927 240.556,334.620 239.935,335.833 240.488 C 336.575 240.826,336.688 241.062,336.382 241.634 M223.116 241.157 C 227.162 243.223,227.866 249.655,224.350 252.440 C 222.608 253.819,217.753 254.550,216.400 253.636 C 215.653 253.132,215.296 243.247,215.961 241.500 C 216.501 240.082,220.622 239.884,223.116 241.157 M234.669 242.158 C 235.367 243.107,236.149 244.675,236.406 245.642 C 236.664 246.609,237.137 247.695,237.459 248.055 C 238.204 248.891,238.310 252.544,237.615 253.382 C 236.977 254.151,236.299 253.689,235.605 252.013 C 234.689 249.802,231.483 249.678,230.393 251.812 C 229.279 253.992,229.222 254.040,228.325 253.560 C 227.303 253.013,227.556 249.438,228.760 247.428 C 229.164 246.753,229.605 245.608,229.740 244.885 C 230.001 243.490,232.239 240.389,232.967 240.416 C 233.205 240.424,233.971 241.208,234.669 242.158 M248.255 241.227 C 249.195 241.681,250.066 242.378,250.192 242.774 C 250.318 243.170,250.776 243.816,251.210 244.209 C 252.138 245.049,252.333 248.794,251.495 249.671 C 251.217 249.962,250.686 250.675,250.315 251.255 C 247.875 255.071,241.396 254.537,239.941 250.400 C 237.658 243.906,242.577 238.478,248.255 241.227 M265.486 240.846 C 265.732 241.092,266.353 241.502,266.866 241.758 C 269.479 243.061,266.988 245.102,264.039 244.074 C 262.303 243.468,260.550 244.395,260.308 246.047 C 260.061 247.727,260.672 250.000,261.370 250.000 C 261.663 250.000,262.108 250.248,262.360 250.552 C 262.746 251.017,263.051 250.986,264.294 250.352 C 265.105 249.938,266.185 249.600,266.693 249.600 C 267.320 249.600,267.770 249.246,268.091 248.500 C 268.352 247.895,269.077 246.635,269.702 245.700 L 270.838 244.000 273.584 244.000 C 278.470 244.000,280.532 249.340,276.922 252.646 C 274.725 254.659,270.362 254.162,269.454 251.796 C 269.273 251.325,268.757 251.485,266.847 252.604 C 260.613 256.258,254.331 250.661,257.361 244.154 C 258.736 241.200,263.785 239.145,265.486 240.846 M218.636 244.250 C 218.335 245.035,218.339 249.131,218.642 250.262 C 218.899 251.218,219.771 251.110,222.300 249.810 C 224.256 248.804,224.194 245.522,222.200 244.516 C 220.626 243.722,218.888 243.592,218.636 244.250 M294.277 245.606 C 295.341 248.712,294.673 253.221,293.104 253.523 C 292.332 253.672,292.162 253.101,291.789 249.100 C 291.397 244.905,289.625 246.020,289.003 250.854 C 288.407 255.485,286.061 254.727,285.655 249.773 C 285.513 248.039,285.201 246.598,284.949 246.515 C 284.285 246.296,282.962 248.774,282.700 250.730 C 281.994 255.994,279.783 254.161,279.818 248.339 C 279.844 244.057,279.853 244.051,285.624 244.096 C 288.250 244.117,290.491 244.043,290.603 243.931 C 291.364 243.170,293.828 244.293,294.277 245.606 M306.793 244.054 C 309.216 243.945,309.444 244.011,310.276 245.054 L 311.166 246.171 312.083 245.341 C 314.315 243.319,315.999 243.924,316.002 246.749 C 316.003 247.767,316.194 249.284,316.427 250.120 L 316.849 251.640 317.824 250.202 C 318.361 249.411,318.800 248.435,318.800 248.032 C 318.800 245.263,320.170 243.379,321.426 244.421 C 322.267 245.119,322.247 252.897,321.402 253.598 C 320.922 253.997,320.623 253.976,319.885 253.492 C 319.096 252.976,318.857 252.969,318.206 253.445 C 316.792 254.479,314.484 254.157,313.666 252.812 C 312.982 251.688,312.896 251.658,312.059 252.244 C 309.076 254.333,308.000 253.532,308.000 249.223 C 308.000 245.219,306.332 245.049,305.812 249.000 C 305.303 252.864,305.206 253.112,304.092 253.391 C 302.666 253.749,302.000 252.782,302.000 250.350 C 302.000 248.334,301.448 246.400,300.873 246.400 C 300.402 246.400,299.601 249.182,299.594 250.846 C 299.586 252.572,299.265 253.032,297.886 253.288 C 296.285 253.585,295.600 252.412,295.600 249.371 C 295.600 245.236,296.049 244.495,298.730 244.203 C 299.979 244.067,301.360 243.903,301.800 243.837 C 302.240 243.772,302.960 243.821,303.400 243.945 C 303.840 244.069,305.367 244.118,306.793 244.054 M332.064 244.678 C 333.024 245.833,333.009 252.060,332.044 253.201 L 331.200 254.200 330.400 253.256 C 329.800 252.548,329.600 251.730,329.600 249.988 C 329.600 246.628,329.405 246.273,327.967 247.017 C 326.789 247.626,326.593 248.096,326.261 251.116 C 325.765 255.619,323.867 254.426,323.667 249.486 C 323.476 244.746,323.850 244.002,326.402 244.059 C 327.516 244.085,328.506 244.027,328.602 243.931 C 328.979 243.554,331.601 244.119,332.064 244.678 M243.300 244.412 C 241.680 245.064,241.989 248.879,243.746 249.915 C 245.649 251.038,247.126 250.675,247.866 248.904 C 249.350 245.352,246.916 242.959,243.300 244.412 M232.623 246.362 C 232.477 246.599,232.520 247.085,232.719 247.441 C 233.046 248.025,233.107 248.019,233.354 247.377 C 233.666 246.562,233.039 245.690,232.623 246.362 M272.634 246.745 C 272.270 247.333,272.278 249.358,272.648 250.267 C 273.250 251.750,275.600 250.502,275.600 248.699 C 275.600 246.811,273.464 245.403,272.634 246.745 " stroke="none" fill="#fbfbfb" fill-rule="evenodd"></path></g></svg>